#!OML:ASF H:\Punching\Project 1\Capture day 1\Session 1\female.ASF
:FULLY-SPECIFIED
:DEGREES
206
root -0.0820442 14.916 -1.87453 7.94702 -0.437325 -0.873602
lowerback 2.92166 -0.792401 0.471472
upperback -5.82046 -1.05828 -0.340337
thorax -7.73795 -0.561953 -0.519149
lowerneck -13.2889 2.00713 8.21185
upperneck 34.5656 2.09468 -4.2786
head 14.1779 1.40003 -2.85949
rclavicle 3.66509e-015 6.55989e-015
rhumerus 31.648 10.8136 -61.8549
rradius 65.4998
rwrist 0.475835
rhand 30.8154 -35.329
rfingers 7.12502
rthumb 54.4385 -53.8662
lclavicle 3.66509e-015 6.55989e-015
lhumerus 27.4189 -9.75484 56.4892
lradius 79.9144
lwrist -8.9656
lhand 35.7485 26.0151
lfingers 7.12502
lthumb 58.7874 41.0084
rfemur -26.7339 -5.31013 16.7488
rtibia 50.0706
rfoot -27.9405 -8.69848
rtoes -12.6459
lfemur -27.8167 0.0790066 -16.7086
ltibia 50.2603
lfoot -25.3836 10.9986
ltoes -13.0512
207
root -0.0834574 14.9179 -1.87331 7.93436 -0.439446 -0.898167
lowerback 2.93384 -0.7875 0.478812
upperback -5.84696 -1.05055 -0.330418
thorax -7.77349 -0.558365 -0.513229
lowerneck -13.2563 2.08339 8.29036
upperneck 34.5199 2.19362 -4.29077
head 14.1603 1.45139 -2.86126
rclavicle 6.69656e-015 3.18055e-015
rhumerus 31.5772 10.8485 -61.845
rradius 65.519
rwrist 0.438078
rhand 30.7531 -35.3132
rfingers 7.12502
rthumb 54.3827 -53.8892
lclavicle 6.69656e-015 3.18055e-015
lhumerus 27.3618 -9.78984 56.5077
lradius 79.9183
lwrist -8.93309
lhand 35.7294 26.0023
lfingers 7.12502
lthumb 58.7708 41.0114
rfemur -26.7038 -5.27366 16.781
rtibia 50.0431
rfoot -27.9386 -8.71952
rtoes -12.653
lfemur -27.7969 0.113871 -16.6755
ltibia 50.246
lfoot -25.3867 10.9556
ltoes -13.0588
208
root -0.0841119 14.9181 -1.8719 7.91853 -0.424321 -0.887103
lowerback 2.91084 -0.789726 0.472032
upperback -5.83482 -1.05465 -0.3397
thorax -7.74705 -0.560233 -0.519189
lowerneck -13.2598 2.17613 8.38344
upperneck 34.4484 2.30739 -4.2979
head 14.141 1.51097 -2.86048
rclavicle -5.86415e-015 4.96962e-015
rhumerus 31.5665 10.8386 -61.8625
rradius 65.5286
rwrist 0.458932
rhand 30.8038 -35.3456
rfingers 7.12502
rthumb 54.4281 -53.89
lclavicle -5.86415e-015 4.96962e-015
lhumerus 27.3833 -9.78924 56.5129
lradius 79.9191
lwrist -8.94095
lhand 35.7276 25.9743
lfingers 7.12502
lthumb 58.7692 40.9848
rfemur -26.6569 -5.28531 16.7699
rtibia 50.0186
rfoot -27.9239 -8.74369
rtoes -12.7296
lfemur -27.7669 0.128173 -16.6875
ltibia 50.231
lfoot -25.3767 10.9163
ltoes -13.0429
209
root -0.0855455 14.9196 -1.87137 7.91433 -0.410069 -0.897492
lowerback 2.90072 -0.786233 0.47369
upperback -5.83816 -1.05011 -0.343415
thorax -7.74478 -0.55823 -0.524567
lowerneck -13.3 2.28067 8.48928
upperneck 34.4228 2.42311 -4.27873
head 14.1515 1.57727 -2.852
rclavicle 3.14328e-015 1.19271e-015
rhumerus 31.5497 10.8312 -61.8537
rradius 65.5102
rwrist 0.442885
rhand 30.6963 -35.3309
rfingers 7.12502
rthumb 54.3318 -53.942
lclavicle 3.14328e-015 1.19271e-015
lhumerus 27.3582 -9.81609 56.5201
lradius 79.945
lwrist -8.92222
lhand 35.7057 25.9858
lfingers 7.12502
lthumb 58.7503 41.0144
rfemur -26.6296 -5.27484 16.7847
rtibia 49.9842
rfoot -27.9306 -8.73164
rtoes -12.6246
lfemur -27.7543 0.149959 -16.6716
ltibia 50.2094
lfoot -25.3708 10.8681
ltoes -13.0203
210
root -0.0870653 14.9204 -1.87073 7.90269 -0.410561 -0.922493
lowerback 2.89779 -0.80415 0.457805
upperback -5.86999 -1.0725 -0.300531
thorax -7.77651 -0.566967 -0.468348
lowerneck -13.1507 2.40855 8.52908
upperneck 34.3237 2.60492 -4.2462
head 14.09 1.66544 -2.81414
rclavicle -7.93896e-015 -6.95746e-015
rhumerus 31.5248 10.9387 -61.8301
rradius 65.5218
rwrist 0.428553
rhand 30.7265 -35.3086
rfingers 7.12502
rthumb 54.3589 -53.901
lclavicle -7.93896e-015 -6.95746e-015
lhumerus 27.2435 -9.79577 56.5555
lradius 79.9618
lwrist -8.91765
lhand 35.7244 25.9805
lfingers 7.12502
lthumb 58.7664 40.9938
rfemur -26.5989 -5.23912 16.8174
rtibia 49.9534
rfoot -27.9204 -8.76266
rtoes -12.6761
lfemur -27.7379 0.189825 -16.6394
ltibia 50.1969
lfoot -25.3764 10.8164
ltoes -12.9232
211
root -0.0881719 14.9217 -1.87008 7.8855 -0.406364 -0.909459
lowerback 2.91745 -0.800881 0.43963
upperback -5.88898 -1.06979 -0.307247
thorax -7.80826 -0.564848 -0.465039
lowerneck -13.1433 2.54167 8.66126
upperneck 34.2908 2.7622 -4.23159
head 14.0912 1.75295 -2.80535
rclavicle 9.47954e-015 7.7526e-015
rhumerus 31.453 10.9468 -61.841
rradius 65.538
rwrist 0.45251
rhand 30.6926 -35.2794
rfingers 7.12502
rthumb 54.3285 -53.8929
lclavicle 9.47954e-015 7.7526e-015
lhumerus 27.2079 -9.83308 56.5616
lradius 79.9669
lwrist -8.90303
lhand 35.7148 25.9791
lfingers 7.12502
lthumb 58.7581 41.0002
rfemur -26.5642 -5.22342 16.8042
rtibia 49.9275
rfoot -27.9022 -8.77028
rtoes -12.6213
lfemur -27.7021 0.20866 -16.6524
ltibia 50.1752
lfoot -25.37 10.7921
ltoes -12.9114
212
root -0.08978 14.9217 -1.86901 7.88016 -0.395999 -0.940905
lowerback 2.89033 -0.779299 0.483093
upperback -5.87354 -1.03929 -0.329213
thorax -7.77662 -0.553118 -0.515862
lowerneck -13.2126 2.66107 8.80986
upperneck 34.2535 2.87482 -4.18355
head 14.1042 1.82693 -2.79238
rclavicle -9.92681e-015 1.39149e-015
rhumerus 31.4506 10.8776 -61.8359
rradius 65.5194
rwrist 0.4403
rhand 30.6206 -35.2658
rfingers 7.12502
rthumb 54.264 -53.9237
lclavicle -9.92681e-015 1.39149e-015
lhumerus 27.2813 -9.89452 56.5484
lradius 79.9564
lwrist -8.895
lhand 35.7067 25.9508
lfingers 7.12502
lthumb 58.7511 40.9785
rfemur -26.5348 -5.20113 16.8463
rtibia 49.9015
rfoot -27.9078 -8.80049
rtoes -12.6057
lfemur -27.689 0.235131 -16.6114
ltibia 50.1635
lfoot -25.3793 10.7539
ltoes -12.8638
213
root -0.0907802 14.9223 -1.8688 7.87876 -0.387231 -0.922518
lowerback 2.89255 -0.76317 0.474987
upperback -5.88779 -1.01981 -0.353363
thorax -7.79335 -0.543927 -0.538394
lowerneck -13.2104 2.78515 8.91768
upperneck 34.1969 3.00591 -4.11531
head 14.0928 1.90655 -2.76065
rclavicle 2.17918e-014 -1.59028e-015
rhumerus 31.3813 10.8326 -61.8388
rradius 65.538
rwrist 0.486661
rhand 30.6179 -35.2131
rfingers 7.12502
rthumb 54.2616 -53.8727
lclavicle 2.17918e-014 -1.59028e-015
lhumerus 27.3011 -9.97267 56.5383
lradius 79.9671
lwrist -8.88427
lhand 35.7222 25.95
lfingers 7.12502
lthumb 58.7646 40.965
rfemur -26.5217 -5.20744 16.8307
rtibia 49.8825
rfoot -27.8876 -8.81487
rtoes -12.7252
lfemur -27.6777 0.250786 -16.6304
ltibia 50.1369
lfoot -25.3684 10.735
ltoes -12.9059
214
root -0.0924919 14.923 -1.86754 7.8666 -0.382377 -0.936449
lowerback 2.85929 -0.757467 0.481507
upperback -5.86994 -1.01171 -0.353291
thorax -7.75462 -0.540225 -0.543328
lowerneck -13.2372 2.9132 9.00227
upperneck 34.1408 3.14667 -4.04824
head 14.0884 1.98674 -2.7237
rclavicle -1.44119e-015 5.1684e-015
rhumerus 31.4282 10.8116 -61.8334
rradius 65.5135
rwrist 0.492929
rhand 30.6277 -35.1904
rfingers 7.12502
rthumb 54.2704 -53.844
lclavicle -1.44119e-015 5.1684e-015
lhumerus 27.3426 -9.98301 56.5309
lradius 79.9533
lwrist -8.88525
lhand 35.6987 25.9832
lfingers 7.12502
lthumb 58.7442 41.0176
rfemur -26.484 -5.17426 16.8491
rtibia 49.8553
rfoot -27.893 -8.82602
rtoes -12.6595
lfemur -27.6463 0.27334 -16.6095
ltibia 50.1139
lfoot -25.3795 10.7089
ltoes -12.8841
215
root -0.0930299 14.9247 -1.86578 7.86505 -0.361592 -0.924473
lowerback 2.82957 -0.748291 0.487914
upperback -5.87618 -1.00023 -0.371256
thorax -7.74429 -0.535581 -0.567203
lowerneck -13.2132 3.03643 9.09896
upperneck 34.0636 3.28209 -3.98182
head 14.0629 2.06624 -2.68972
rclavicle 9.52924e-015 1.78906e-015
rhumerus 31.3776 10.7964 -61.8265
rradius 65.5061
rwrist 0.593441
rhand 30.6713 -35.2399
rfingers 7.12502
rthumb 54.3094 -53.8665
lclavicle 9.52924e-015 1.78906e-015
lhumerus 27.3608 -10.0413 56.5298
lradius 79.9368
lwrist -8.90237
lhand 35.7125 25.9936
lfingers 7.12502
lthumb 58.7561 41.0166
rfemur -26.4534 -5.18684 16.8393
rtibia 49.8274
rfoot -27.8825 -8.84495
rtoes -12.6894
lfemur -27.6208 0.285276 -16.624
ltibia 50.079
lfoot -25.3585 10.6984
ltoes -12.9441
216
root -0.0947516 14.9261 -1.86528 7.86839 -0.368657 -0.939679
lowerback 2.83039 -0.741547 0.488507
upperback -5.89591 -0.990941 -0.367753
thorax -7.76586 -0.531017 -0.564603
lowerneck -13.2019 3.17167 9.22769
upperneck 34.0107 3.43894 -3.95467
head 14.0549 2.15421 -2.67448
rclavicle 4.60932e-015 -3.57812e-015
rhumerus 31.3508 10.8098 -61.8197
rradius 65.5021
rwrist 0.581232
rhand 30.6788 -35.2506
rfingers 7.12502
rthumb 54.3162 -53.8726
lclavicle 4.60932e-015 -3.57812e-015
lhumerus 27.3583 -10.066 56.5377
lradius 79.9217
lwrist -8.92806
lhand 35.7269 25.9845
lfingers 7.12502
lthumb 58.7686 40.9956
rfemur -26.4423 -5.14824 16.8639
rtibia 49.7941
rfoot -27.8756 -8.86459
rtoes -12.6598
lfemur -27.6139 0.312273 -16.5996
ltibia 50.0513
lfoot -25.3656 10.6598
ltoes -12.8227
217
root -0.0950723 14.9277 -1.86385 7.86045 -0.365038 -0.927799
lowerback 2.81897 -0.737175 0.485628
upperback -5.88025 -0.986255 -0.382913
thorax -7.74245 -0.528973 -0.57959
lowerneck -13.2457 3.32051 9.37065
upperneck 33.9406 3.60684 -3.9304
head 14.0533 2.24749 -2.66028
rclavicle -4.63417e-015 -1.2921e-014
rhumerus 31.3573 10.777 -61.8356
rradius 65.5154
rwrist 0.574265
rhand 30.6813 -35.2704
rfingers 7.12502
rthumb 54.3184 -53.8908
lclavicle -4.63417e-015 -1.2921e-014
lhumerus 27.4055 -10.0739 56.5291
lradius 79.9187
lwrist -8.9409
lhand 35.771 26.0115
lfingers 7.12502
lthumb 58.8068 40.9862
rfemur -26.4114 -5.14857 16.8488
rtibia 49.7686
rfoot -27.8757 -8.86017
rtoes -12.6225
lfemur -27.5816 0.32085 -16.6156
ltibia 50.0216
lfoot -25.3553 10.6469
ltoes -12.7966
218
root -0.0960981 14.9288 -1.86286 7.85983 -0.341069 -0.934929
lowerback 2.81288 -0.737062 0.500498
upperback -5.88755 -0.98575 -0.392154
thorax -7.74723 -0.529963 -0.597684
lowerneck -13.1782 3.44763 9.54784
upperneck 33.8067 3.75751 -3.94761
head 13.9985 2.33199 -2.67136
rclavicle -7.55382e-015 7.55382e-015
rhumerus 31.3494 10.7479 -61.8583
rradius 65.5459
rwrist 0.462169
rhand 30.6122 -35.2311
rfingers 7.12502
rthumb 54.2565 -53.8942
lclavicle -7.55382e-015 7.55382e-015
lhumerus 27.3664 -10.0946 56.5402
lradius 79.8918
lwrist -8.98578
lhand 35.7349 25.9419
lfingers 7.12502
lthumb 58.7756 40.9464
rfemur -26.3849 -5.16015 16.8635
rtibia 49.7433
rfoot -27.8811 -8.87452
rtoes -12.5966
lfemur -27.5708 0.335544 -16.6079
ltibia 49.9977
lfoot -25.3521 10.6111
ltoes -12.7685
219
root -0.09803 14.9295 -1.86287 7.87118 -0.346372 -0.910465
lowerback 2.7849 -0.731067 0.456295
upperback -5.85974 -0.981668 -0.407694
thorax -7.70025 -0.525687 -0.590158
lowerneck -13.2054 3.59256 9.78277
upperneck 33.6603 3.92605 -4.0183
head 13.9646 2.42321 -2.71037
rclavicle 3.66509e-015 1.19271e-014
rhumerus 31.4041 10.7016 -61.8722
rradius 65.5418
rwrist 0.461558
rhand 30.5704 -35.264
rfingers 7.12502
rthumb 54.219 -53.9528
lclavicle 3.66509e-015 1.19271e-014
lhumerus 27.4567 -10.0772 56.5183
lradius 79.8753
lwrist -9.00558
lhand 35.7565 25.9422
lfingers 7.12502
lthumb 58.7943 40.9289
rfemur -26.3934 -5.13234 16.8454
rtibia 49.7229
rfoot -27.8613 -8.89489
rtoes -12.6024
lfemur -27.5758 0.376688 -16.6299
ltibia 49.9738
lfoot -25.3309 10.5917
ltoes -12.8247
220
root -0.0984532 14.9307 -1.86135 7.8546 -0.333176 -0.916744
lowerback 2.78794 -0.736863 0.46492
upperback -5.87386 -0.988752 -0.405164
thorax -7.71749 -0.529675 -0.591532
lowerneck -13.1291 3.71349 9.91911
upperneck 33.5596 4.07496 -4.01872
head 13.922 2.50451 -2.70856
rclavicle 3.08116e-015 4.17448e-015
rhumerus 31.3832 10.7295 -61.8733
rradius 65.5551
rwrist 0.439217
rhand 30.6001 -35.2623
rfingers 7.12502
rthumb 54.2456 -53.9329
lclavicle 3.08116e-015 4.17448e-015
lhumerus 27.4095 -10.0884 56.5251
lradius 79.8856
lwrist -9.02378
lhand 35.7119 25.93
lfingers 7.12502
lthumb 58.7557 40.9534
rfemur -26.3511 -5.14182 16.8528
rtibia 49.6983
rfoot -27.8352 -8.90821
rtoes -12.6919
lfemur -27.5411 0.385861 -16.6209
ltibia 49.9463
lfoot -25.3278 10.5608
ltoes -12.7231
